<svg xmlns="http://www.w3.org/2000/svg" viewBox="0 0 64 64">
  <rect width="64" height="64" fill="#fff"/>
  <g stroke="#0a0a0a" stroke-width="2.5" stroke-linecap="square">
    <!-- horizontal lines -->
    <line x1="8" y1="16" x2="25" y2="16"/>
    <line x1="39" y1="16" x2="56" y2="16"/>
    <line x1="8" y1="32" x2="25" y2="32"/>
    <line x1="39" y1="32" x2="56" y2="32"/>
    <line x1="8" y1="48" x2="25" y2="48"/>
    <line x1="39" y1="48" x2="56" y2="48"/>
    <!-- vertical lines -->
    <line x1="16" y1="8" x2="16" y2="25"/>
    <line x1="16" y1="39" x2="16" y2="56"/>
    <line x1="32" y1="8" x2="32" y2="25"/>
    <line x1="32" y1="39" x2="32" y2="56"/>
    <line x1="48" y1="8" x2="48" y2="25"/>
    <line x1="48" y1="39" x2="48" y2="56"/>
    <!-- crosses -->
    <line x1="13" y1="16" x2="19" y2="16"/>
    <line x1="16" y1="13" x2="16" y2="19"/>
    <line x1="29" y1="16" x2="35" y2="16"/>
    <line x1="32" y1="13" x2="32" y2="19"/>
    <line x1="45" y1="16" x2="51" y2="16"/>
    <line x1="48" y1="13" x2="48" y2="19"/>
    <line x1="13" y1="32" x2="19" y2="32"/>
    <line x1="16" y1="29" x2="16" y2="35"/>
    <line x1="29" y1="32" x2="35" y2="32"/>
    <line x1="32" y1="29" x2="32" y2="35"/>
    <line x1="45" y1="32" x2="51" y2="32"/>
    <line x1="48" y1="29" x2="48" y2="35"/>
    <line x1="13" y1="48" x2="19" y2="48"/>
    <line x1="16" y1="45" x2="16" y2="51"/>
    <line x1="29" y1="48" x2="35" y2="48"/>
    <line x1="32" y1="45" x2="32" y2="51"/>
    <line x1="45" y1="48" x2="51" y2="48"/>
    <line x1="48" y1="45" x2="48" y2="51"/>
  </g>
</svg>
